<svg width="371" height="171" viewBox="0 0 371 171" fill="none" xmlns="http://www.w3.org/2000/svg">
<path d="M99.2107 0.727268H134.168L114.893 117.606C113.041 128.442 109.121 137.807 103.131 145.702C97.1416 153.543 89.5457 159.615 80.3436 163.916C71.1414 168.163 60.8774 170.287 49.5517 170.287C39.3694 170.287 30.4394 168.49 22.7619 164.896C15.1388 161.303 9.50312 155.857 5.85492 148.561C2.26117 141.265 1.36273 132.062 3.1596 120.955H38.117C37.5725 125.474 37.8447 129.286 38.9338 132.389C40.0772 135.493 42.0102 137.862 44.7328 139.495C47.4553 141.129 50.8585 141.945 54.9423 141.945C59.3528 141.945 63.2732 140.992 66.7036 139.087C70.134 137.181 72.9655 134.377 75.198 130.674C77.4849 126.971 79.0912 122.452 80.0169 117.116L99.2107 0.727268ZM124.138 168L151.908 0.727268H264.621L259.721 29.8856H182.373L175.839 69.7436H247.388L242.487 98.902H170.939L164.405 138.842H242.079L237.178 168H124.138ZM228.567 29.8856L233.468 0.727268H370.847L365.946 29.8856H314.735L291.866 168H256.909L279.778 29.8856H228.567Z" fill="white"/>
</svg>
